<?xml version="1.0" encoding="UTF-8"?>
<svg id="Layer_5" data-name="Layer 5" xmlns="http://www.w3.org/2000/svg" xmlns:xlink="http://www.w3.org/1999/xlink" viewBox="0 0 349.01 202.48">
  <defs>
    <style>
      .cls-1 {
        fill: url(#linear-gradient);
      }
    </style>
    <linearGradient id="linear-gradient" x1="-25.84" y1="214.18" x2="368.72" y2="-13.62" gradientUnits="userSpaceOnUse">
      <stop offset="0" stop-color="#80d8ff"/>
      <stop offset=".16" stop-color="#87d1fe"/>
      <stop offset=".4" stop-color="#9cc0fe"/>
      <stop offset=".7" stop-color="#bfa3fd"/>
      <stop offset="1" stop-color="#ea80fd"/>
    </linearGradient>
  </defs>
  <path class="cls-1" d="M212.24,17.64v164.59c0,6.88-5.57,12.45-12.45,12.45h-19c-6.88,0-12.45-5.57-12.45-12.45V17.64c0-6.88,5.57-12.45,12.45-12.45h19c6.88,0,12.45,5.57,12.45,12.45ZM326,5.19h-19c-6.88,0-12.45,5.57-12.45,12.45v164.59c0,6.88,5.57,12.45,12.45,12.45h19c6.88,0,12.45-5.57,12.45-12.45V17.64c0-6.88-5.57-12.45-12.45-12.45ZM262.89,12.53h-19c-6.88,0-12.45,5.57-12.45,12.45v92.33c0,6.88,5.57,12.45,12.45,12.45h19c6.88,0,12.45-5.57,12.45-12.45V24.98c0-6.88-5.57-12.45-12.45-12.45ZM151.61,115.45l-57.46-57.46c-4.86-4.86-12.74-4.86-17.61,0l-13.43,13.43c-4.86,4.86-4.86,12.74,0,17.61l35.32,35.32-26.44,26.44h-22.5V17.64c0-6.88-5.57-12.45-12.45-12.45h-19c-6.88,0-12.45,5.57-12.45,12.45v164.59c0,6.88,5.57,12.45,12.45,12.45h66.7c2.26,0,4.37-.61,6.2-1.66,1.15-.58,2.24-1.35,3.2-2.31l57.46-57.46c2.46-2.46,3.67-5.68,3.64-8.9.03-3.22-1.19-6.45-3.64-8.9Z"/>
</svg>