<?xml version="1.0" encoding="UTF-8"?>
<svg id="Layer_1" data-name="Layer 1" xmlns="http://www.w3.org/2000/svg" viewBox="0 0 392.44 390.76">
  <defs>
    <style>
      .cls-1 {
        fill: none;
      }

      .cls-2 {
        fill: #85d5f7;
      }
    </style>
  </defs>
  <path class="cls-2" d="M387.8,184.2v26.2c-5.72,75.2-56.09,142.69-127.42,167.88-6.3,2.23-15.64,5.56-22.1,6.35-4.41.54-8.81-.78-9.87-5.47-.23-21.7.49-43.5-.79-65.09-.47-8-.21-14.12-2.62-22.08-1.56-5.13-6.59-11.12-1.16-16.13,2.67-2.46,16.43-5.45,21.18-7.26,48.19-18.43,82.14-68.84,51.03-118.02-2.41-3.81-12.33-14.66-12.88-17.06-.95-4.16,1.23-6.17,2.05-9.62,2.91-12.3,3.9-25.48-4.15-36.16-2.49-.6-15.95,8.37-18.61,10.41-3.94,3.02-11.91,12.4-15.84,12.66-3.25.22-15.35-4.45-19.88-5.45-27.25-6.02-54.1-3.71-80.33,5.49-4.96.02-8.8-6.39-12.34-9.38-2.97-2.5-20.32-15.26-23.21-13.51-7,10.47-6.9,23.02-4.14,34.87.88,3.77,3.51,6.2,2.48,10.68-.63,2.76-7.97,9.95-10.19,13.02-33.78,46.89-4.97,98.63,42.55,119.6,4.73,2.09,18.08,5.66,20.58,8.61.96,1.13,1.56,1.88,1.81,3.43,3.46,21.84-9.24,34.46-30.83,30.83-15.29-2.57-25.71-15.06-38.52-22.11-.66-.36-1.87-1.66-2.46-.54,13.96,17.87,24.5,37.71,49.74,39.33,7.82.5,21.18-3.51,22.15,7.04,1.35,14.7-1.05,31.48-.07,46.41-1.75,9.58-17.05,3.85-22.99,2.11C-8.87,337.42-44.08,137.79,81.71,43.91c120.96-90.27,296.86-9.16,306.09,140.29ZM148.27,366.09v-24.7h-14.6c-28.66,0-47.9-42.48-64.71-58.8-4.54-4.4-5.44-3.48-10.53-5.19-7.99-2.68-8.03-13.1-.53-15.54,5.64-1.84,19.96,1.11,26,2.79,19.28,5.38,40.33,27.87,55.03,28.8,5.98.38,10.35-1.06,8.61-7.85-61.88-19.37-103.36-85.16-63.81-145.39,1.36-2.07,7.78-9.4,8.05-10.6.19-.86-2.42-9.93-2.63-12.44-1.16-14.14,1.56-32.3,11.58-43.04,6.22-6.66,10.14-4.33,17.79-1.31,11.7,4.62,20.93,12.76,30.91,20.03,30.3-9.2,63.2-9.23,93.51.02,9.67-7.25,18.96-15.28,30.35-19.84,7.24-2.9,11.94-5.65,17.97.72,12.96,13.71,14.6,38.83,9.13,56.07,18.65,20.74,27.48,48.49,22.07,76.22-7.82,40.06-43.98,70.47-82.12,80.69,6.82,25.71,2.56,52.96,3.75,79.34,58.23-15.29,105.22-63.98,121.2-121.7,27.41-99.02-36.23-200.8-136.9-219.28C105.69,2.6-.69,110.94,24.24,232.99c12.82,62.73,61.94,116.65,124.02,133.1Z"/>
  <path class="cls-1" d="M148.27,366.09c-62.08-16.44-111.21-70.37-124.02-133.1C-.69,110.94,105.69,2.6,228.38,25.11c100.68,18.48,164.32,120.26,136.9,219.28-15.98,57.72-62.96,106.41-121.2,121.7-1.19-26.37,3.07-53.62-3.75-79.34,38.14-10.22,74.3-40.63,82.12-80.69,5.41-27.73-3.42-55.48-22.07-76.22,5.47-17.24,3.83-42.36-9.13-56.07-6.03-6.37-10.73-3.62-17.97-.72-11.38,4.56-20.67,12.59-30.35,19.84-30.31-9.25-63.21-9.22-93.51-.02-9.98-7.27-19.2-15.41-30.91-20.03-7.66-3.02-11.57-5.35-17.79,1.31-10.03,10.73-12.74,28.9-11.58,43.04.21,2.52,2.82,11.58,2.63,12.44-.27,1.21-6.69,8.53-8.05,10.6-39.55,60.22,1.93,126.01,63.81,145.39,1.74,6.79-2.63,8.22-8.61,7.85-14.7-.93-35.75-23.43-55.03-28.8-6.04-1.68-20.36-4.63-26-2.79-7.5,2.44-7.46,12.86.53,15.54,5.09,1.7,5.99.78,10.53,5.19,16.81,16.32,36.05,58.8,64.71,58.8h14.6v24.7Z"/>
</svg>